<?xml version="1.0" encoding="utf-8"?>
<!-- Generator: Adobe Illustrator 21.0.0, SVG Export Plug-In . SVG Version: 6.00 Build 0)  -->
<svg version="1.1" id="Layer_1" xmlns="http://www.w3.org/2000/svg" xmlns:xlink="http://www.w3.org/1999/xlink" x="0px" y="0px"
	 viewBox="0 0 18.3 20.4" style="enable-background:new 0 0 18.3 20.4;" xml:space="preserve">
<style type="text/css">
	.st0{fill:#515974;}
	.st1{fill:#FFFFFF;stroke:#515974;stroke-width:0.75;stroke-linecap:round;stroke-linejoin:round;stroke-miterlimit:10;}
</style>
<g>
	<g>
		<path class="st0" d="M9.2,20.4c-1.9,0-3.6-1.5-4-3.5c0-0.1,0-0.2,0.1-0.3c0.1-0.1,0.2-0.1,0.3-0.1h7.3c0.1,0,0.2,0.1,0.3,0.1
			c0.1,0.1,0.1,0.2,0.1,0.3C12.7,18.9,11,20.4,9.2,20.4z M6,17.1c0.5,1.5,1.8,2.5,3.2,2.5c1.4,0,2.7-1,3.2-2.5H6z"/>
	</g>
	<g>
		<path class="st1" d="M9.2,20"/>
	</g>
	<g>
		<path class="st0" d="M17.1,17.1H1.2c-0.5,0-0.9-0.3-1.1-0.8c-0.2-0.5,0-1,0.3-1.3c0.7-0.6,1.2-1.1,1.2-2.2V9.2
			c0-0.2,0.2-0.4,0.4-0.4S2.3,9,2.3,9.2v3.6c0,1.4-0.6,2.1-1.4,2.8c-0.2,0.2-0.1,0.4-0.1,0.5c0,0.1,0.1,0.3,0.4,0.3h15.9
			c0.3,0,0.4-0.2,0.4-0.3c0-0.1,0.1-0.3-0.1-0.5c-0.7-0.6-1.3-1.2-1.3-2.7V9.2c0-0.2,0.2-0.4,0.4-0.4s0.4,0.2,0.4,0.4V13
			c0,1.1,0.4,1.5,1.1,2.1c0.4,0.3,0.5,0.8,0.3,1.3C18.1,16.8,17.6,17.1,17.1,17.1z"/>
	</g>
	<g>
		<path class="st0" d="M16.4,9.6c-0.2,0-0.4-0.2-0.4-0.4c0-3.8-3.1-6.9-6.9-6.9S2.3,5.4,2.3,9.2c0,0.2-0.2,0.4-0.4,0.4
			S1.6,9.4,1.6,9.2C1.6,5,5,1.6,9.2,1.6s7.6,3.4,7.6,7.6C16.8,9.4,16.6,9.6,16.4,9.6z"/>
	</g>
	<g>
		<path class="st0" d="M10.8,2.4c-0.2,0-0.4-0.2-0.4-0.4c0-0.7-0.6-1.2-1.2-1.2C8.5,0.8,7.9,1.3,7.9,2c0,0.2-0.2,0.4-0.4,0.4
			S7.2,2.2,7.2,2c0-1.1,0.9-2,2-2c1.1,0,2,0.9,2,2C11.2,2.2,11,2.4,10.8,2.4z"/>
	</g>
</g>
</svg>
