<?xml version="1.0" encoding="utf-8"?>
<!-- Generator: Adobe Illustrator 21.0.0, SVG Export Plug-In . SVG Version: 6.00 Build 0)  -->
<svg version="1.1" id="Layer_1" xmlns="http://www.w3.org/2000/svg" xmlns:xlink="http://www.w3.org/1999/xlink" x="0px" y="0px"
	 viewBox="0 0 9.2 12.8" style="enable-background:new 0 0 9.2 12.8;" xml:space="preserve">
<style type="text/css">
	.st0{fill:#515974;}
</style>
<g>
	<g>
		<path class="st0" d="M7.7,12.8H1.5c-0.8,0-1.5-0.7-1.5-1.5V6c0-0.8,0.7-1.5,1.5-1.5h6.2c0.8,0,1.5,0.7,1.5,1.5v5.3
			C9.2,12.1,8.5,12.8,7.7,12.8z M1.5,5c-0.5,0-1,0.4-1,1v5.3c0,0.5,0.4,1,1,1h6.2c0.5,0,1-0.4,1-1V6c0-0.5-0.4-1-1-1H1.5z"/>
	</g>
	<g>
		<path class="st0" d="M7.1,3C6.9,3,6.8,2.9,6.8,2.7c0-1.2-1-2.2-2.2-2.2s-2.2,1-2.2,2.2C2.4,2.9,2.3,3,2.1,3S1.9,2.9,1.9,2.7
			C1.9,1.2,3.1,0,4.6,0s2.7,1.2,2.7,2.7C7.3,2.9,7.2,3,7.1,3z"/>
	</g>
	<g>
		<path class="st0" d="M7.1,5H2.1C2,5,1.9,4.9,1.9,4.7v-2c0-0.1,0.1-0.3,0.3-0.3s0.3,0.1,0.3,0.3v1.7h4.4V2.7c0-0.1,0.1-0.3,0.3-0.3
			s0.3,0.1,0.3,0.3v2C7.3,4.9,7.2,5,7.1,5z"/>
	</g>
</g>
</svg>
