<?xml version="1.0" encoding="utf-8"?>
<!-- Generator: Adobe Illustrator 21.0.0, SVG Export Plug-In . SVG Version: 6.00 Build 0)  -->
<svg version="1.1" id="Layer_1" xmlns="http://www.w3.org/2000/svg" xmlns:xlink="http://www.w3.org/1999/xlink" x="0px" y="0px"
	 viewBox="0 0 17.5 17.5" style="enable-background:new 0 0 17.5 17.5;" xml:space="preserve">
<style type="text/css">
	.st0{fill:#515974;}
</style>
<g>
	<path class="st0" d="M8.8,12.1c-1.8,0-3.3-1.5-3.3-3.3S7,5.5,8.8,5.5s3.3,1.5,3.3,3.3S10.6,12.1,8.8,12.1z M8.8,6.2
		c-1.4,0-2.5,1.1-2.5,2.5s1.1,2.5,2.5,2.5s2.5-1.1,2.5-2.5S10.2,6.2,8.8,6.2z"/>
</g>
<g>
	<path class="st0" d="M10.2,17.5H7.3c-0.2,0-0.3-0.1-0.4-0.3l-0.3-2.1l-0.9-0.4L4.1,16c-0.1,0.1-0.4,0.1-0.5,0l-2-2
		c-0.1-0.1-0.1-0.3,0-0.5l1.3-1.7l-0.4-0.9l-2.1-0.3c-0.2,0-0.3-0.2-0.3-0.4V7.3C0,7.1,0.1,7,0.3,7l2.1-0.3l0.4-0.9L1.5,4.1
		c-0.1-0.1-0.1-0.4,0-0.5l2-2c0.1-0.1,0.3-0.1,0.5,0l1.7,1.3l0.9-0.4L7,0.3C7,0.1,7.1,0,7.3,0h2.9c0.2,0,0.3,0.1,0.4,0.3l0.3,2.1
		l0.9,0.4l1.7-1.3c0.1-0.1,0.4-0.1,0.5,0l2,2c0.1,0.1,0.1,0.3,0,0.5l-1.3,1.7l0.4,0.9L17.2,7c0.2,0,0.3,0.2,0.3,0.4v2.9
		c0,0.2-0.1,0.3-0.3,0.4l-2.1,0.3l-0.4,0.9l1.3,1.7c0.1,0.1,0.1,0.4,0,0.5l-2,2c-0.1,0.1-0.3,0.1-0.5,0l-1.7-1.3l-0.9,0.4l-0.3,2.1
		C10.6,17.4,10.4,17.5,10.2,17.5z M7.7,16.8h2.2l0.3-2c0-0.1,0.1-0.2,0.2-0.3l1.3-0.5c0.1-0.1,0.3,0,0.4,0l1.6,1.2l1.6-1.6L14,12.1
		c-0.1-0.1-0.1-0.2,0-0.4l0.5-1.3c0.1-0.1,0.2-0.2,0.3-0.2l2-0.3V7.7l-2-0.3c-0.1,0-0.2-0.1-0.3-0.2L14,5.8c-0.1-0.1,0-0.3,0-0.4
		l1.2-1.6l-1.6-1.6l-1.6,1.2c-0.1,0.1-0.2,0.1-0.4,0L10.4,3c-0.1-0.1-0.2-0.2-0.2-0.3l-0.3-2H7.7l-0.3,2C7.4,2.9,7.3,3,7.1,3
		L5.8,3.6c-0.1,0.1-0.3,0-0.4,0L3.9,2.3L2.3,3.9l1.2,1.6c0.1,0.1,0.1,0.2,0,0.4L3,7.1C3,7.3,2.9,7.4,2.7,7.4l-2,0.3v2.2l2,0.3
		c0.1,0,0.2,0.1,0.3,0.2l0.5,1.3c0.1,0.1,0,0.3,0,0.4l-1.2,1.6l1.6,1.6L5.5,14c0.1-0.1,0.2-0.1,0.4,0l1.3,0.5
		c0.1,0.1,0.2,0.2,0.2,0.3L7.7,16.8z"/>
</g>
</svg>
